<?xml version="1.0" encoding="UTF-8" standalone="no"?>
<!DOCTYPE svg PUBLIC "-//W3C//DTD SVG 1.1//EN"
 "http://www.w3.org/Graphics/SVG/1.1/DTD/svg11.dtd">
<!-- Generated by graphviz version 2.38.0 (20140413.2041)
 -->
<!-- Title: G Pages: 1 -->
<svg width="190pt" height="168pt"
 viewBox="0.00 0.00 190.00 168.00" xmlns="http://www.w3.org/2000/svg" xmlns:xlink="http://www.w3.org/1999/xlink">
<g id="graph0" class="graph" transform="scale(1 1) rotate(0) translate(4 164)">
<title>G</title>
<polygon fill="white" stroke="none" points="-4,4 -4,-164 186,-164 186,4 -4,4"/>
<g id="clust1" class="cluster"><title>cluster_Global</title>
<path fill="none" stroke="gray" d="M20,-8C20,-8 162,-8 162,-8 168,-8 174,-14 174,-20 174,-20 174,-140 174,-140 174,-146 168,-152 162,-152 162,-152 20,-152 20,-152 14,-152 8,-146 8,-140 8,-140 8,-20 8,-20 8,-14 14,-8 20,-8"/>
<text text-anchor="middle" x="91" y="-139.2" font-family="Times,serif" font-size="11.00" fill="gray">Global</text>
</g>
<g id="clust2" class="cluster"><title>cluster_\hearot</title>
<path fill="none" stroke="gray" d="M28,-16C28,-16 154,-16 154,-16 160,-16 166,-22 166,-28 166,-28 166,-112 166,-112 166,-118 160,-124 154,-124 154,-124 28,-124 28,-124 22,-124 16,-118 16,-112 16,-112 16,-28 16,-28 16,-22 22,-16 28,-16"/>
<text text-anchor="middle" x="91" y="-111.2" font-family="Times,serif" font-size="11.00" fill="gray">hearot</text>
</g>
<g id="clust3" class="cluster"><title>cluster_\hearot\AngleOperations</title>
<path fill="none" stroke="gray" d="M36,-24C36,-24 146,-24 146,-24 152,-24 158,-30 158,-36 158,-36 158,-84 158,-84 158,-90 152,-96 146,-96 146,-96 36,-96 36,-96 30,-96 24,-90 24,-84 24,-84 24,-36 24,-36 24,-30 30,-24 36,-24"/>
<text text-anchor="middle" x="91" y="-83.2" font-family="Times,serif" font-size="11.00" fill="gray">AngleOperations</text>
</g>
<!-- \\hearot\\AngleOperations\\AngleOperations -->
<g id="node1" class="node"><title>\\hearot\\AngleOperations\\AngleOperations</title>
<polygon fill="none" stroke="black" points="150,-68 32,-68 32,-32 150,-32 150,-68"/>
<text text-anchor="middle" x="91" y="-47.2" font-family="Courier,monospace" font-size="11.00">AngleOperations</text>
</g>
</g>
</svg>
